<svg width="20" height="20" viewBox="0 0 20 20" fill="none" xmlns="http://www.w3.org/2000/svg">
<path fill-rule="evenodd" clip-rule="evenodd" d="M9.99902 20C5.28498 20 2.92796 20 1.46349 18.5355C-0.000976562 17.0711 -0.000976562 14.714 -0.000976562 10C-0.000976562 5.28595 -0.000976562 2.92893 1.46349 1.46447C2.92796 0 5.28498 0 9.99902 0C14.7131 0 17.0701 0 18.5346 1.46447C19.999 2.92893 19.999 5.28595 19.999 10C19.999 14.714 19.999 17.0711 18.5346 18.5355C17.0701 20 14.7131 20 9.99902 20ZM13.749 10C13.749 10.4142 13.4132 10.75 12.999 10.75H6.99902C6.58481 10.75 6.24902 10.4142 6.24902 10C6.24902 9.58579 6.58481 9.25 6.99902 9.25H12.999C13.4132 9.25 13.749 9.58579 13.749 10Z" fill="#212121"/>
</svg>
